<svg xmlns="http://www.w3.org/2000/svg" version="1.1" xmlns:xlink="http://www.w3.org/1999/xlink" xmlns:svgjs="http://svgjs.dev/svgjs" width="1000" height="1125" viewBox="0 0 1000 1125"><g transform="matrix(1,0,0,1,0.00007343750002064553,0)"><svg viewBox="0 0 320 360" data-background-color="#ffffff" preserveAspectRatio="xMidYMid meet" height="1125" width="1000" xmlns="http://www.w3.org/2000/svg" xmlns:xlink="http://www.w3.org/1999/xlink"><g id="tight-bounds" transform="matrix(1,0,0,1,0.000023499999997511622,0)"><svg viewBox="0 0 320 360" height="360" width="320"><g><svg></svg></g><g><svg viewBox="0 0 320 360" height="360" width="320"><g><path transform="translate(-74.99272,-51.79039) scale(4.65793,4.65793)" d="M20.6 59.9l0.8 1-0.4-1.3c-0.1-0.6-0.8 0.1-0.4 0.3M21.5 59.3c0.3 0.5 0.6 1 0.6 1.5 0 0.7 0.6 1 1.1 1.2-0.7-0.8-1.1-3-1.7-2.7M59.9 16.9c1.7 0 3.3-0.2 5.1 0.2 4.4 1.1 8.1 3.3 10.6 6.4l7 11.2c0.3 2.8 0.9 5.9 0.8 9.3 0.7 0 0.6-1 1.4-1.2-0.8 2-1.2 4.5-1.4 7.4-0.5-1.6 0-4 0.1-5.3-0.7 1.1-1.1 0.3-1.1-0.2 0.1-0.8-0.3-0.7-0.6-1-1.1-1-1.8-2.1-2.6-3.8 0.5-1.3 0.6-3.2-1-4.2-0.5-0.3-1.1-0.8-1.4-1.6-0.4-1.1-1.1-2.4-0.9-4.1 0.1-0.5-1.5 1.1-2.4 0.4-3.9-2.7-7.8-5.8-12.5-8.4-2.5 0-4.3-0.9-5.2-2-0.8-1-0.2-2.3 1-2.4 0.7 0 1.5-0.2 2.1 0.2 0.1-0.4 0.5-0.9 1-0.9M50 14.6l0.2 0.1c1 0.2 1.5 1.6 2.6 1.1 0 0.7 0.1 1.4-0.1 1.9-0.3 0.8-1.2 0.8-1.9 0.8-6.7-0.4-10.6 2.4-14.7 4.8-1.1 0.7-2.3 1.2-3.2 2.1-4.3 4-9 7.7-10.1 15.1l-0.9 8.2c-0.1 0.9-1.1 1.8-0.9 2.9l0.7 4.9c-0.7-0.7-1.1 0.2-0.9 0.6 0.1 0.3 0.5 1.3 1.1 0.4 0.8 1.5 1.6 4.4 2.7 5.7 3.4 4 7.8 7.6 11.4 11.2 0.9-0.2 1.6-0.2 1.8-0.8 0.3 0.6-0.3 1.2-0.8 1.3 1.6 1 3.4 1.9 5.8 2.1 3.1 0.2 6 0.7 8.7 1.4 1.4-0.4 2.8-0.6 4.3-0.7 0.5 0 0.8-0.8 1.4-1l0.1-1c0.6 0.9 0.5-0.3 0.1-0.9 0.7 0.6 0.9 1.1 1.2 1.5 0-0.3 0.8-1.4 0.8-0.1l0.2-1.3c0.3-0.2 0.4 1.1 0.7 0.2 0.3-0.9 0.9-0.2 1.5-0.5-0.2 0.4-0.1 1.2 0.6 0.7l0.8-0.7c0.5 1.2 1.3 0.7 1.7 0.5 4.4-2.8 8.8-6.1 13-9.4l-0.1 1.3 0.5-1.6c0.5 0.5 0.9 0.1 1.1-0.2 0.6-1 1.4-2 2.7-2.9-1.6 4.3-3.5 7.7-5.9 10.5l-1 1.2c0 0.7-0.2 1.6-1 1.7-0.4 0.1-1.2-0.2-1.8 0.4-0.3 0.4 0.7 1.2-0.1 0.6-0.7-0.5-1.4 0-2.2 0.2-0.6 0.2 0.4 0.8 0.6 1.2 0.2 0.4 0.4 0.8 0.3 1.3l-1.1-1.2c-1.3 0.7-2.1 2-3.2 3-0.5 0.4-0.3 1.1-0.3 1.7-0.7 0-1.5-0.2-1.9 0.2-0.3 0.4-0.2 1-0.2 1.6-1-0.1-1.1-1.6-2-1.3-0.9 0.2-1.9 0.3-2.7 0.8 0.6 1.2-1 0.5-0.8 0.7-1.5-0.9-2.8-1.6-4.4-1-3.4-1.1-7.6-0.6-10.7-0.2 0-0.5 0.1-1-0.1-1.1-0.2 0.5-0.8 0.3-0.7 0.3-1.9-1.3-3.8-2.1-5.8-3.2-1.8 0.2-3.5-0.7-4-1.2-1.4-1.3-3-0.6-4.3-0.9-2.8-0.7-3.8-3.6-4.1-5.6-0.2-1-1-1.4-1.3-1.3-1.3-4.2-3.3-8-4.9-11.9-0.4-1-0.3-2-0.3-3.1 0.5 0.2 1 0.1 0.9-0.6-0.5-3.3-1.7-5.8-3-8.2 0.7-3.4 0.8-7.4 2.4-10.4 1.4-2.7 4-4.1 5.8-6.4 0.6-0.8 0.6-1.9 1.2-2.6 2-2 4-4.1 6.2-5.9 1-0.8 2.2 0 3.7-0.3 0.5-1.8 2.5-3.4 4.4-2.9 0.8 0.2 2.4-1.9 2.9-2.1 0.8-0.3 0.4 0.8 0.4 1.5 1.9-1.5 4.5-2.3 6.9-3.2" fill="#3d3839" fill-rule="nonzero" stroke="none" stroke-width="1" stroke-linecap="butt" stroke-linejoin="miter" stroke-miterlimit="10" stroke-dasharray="" stroke-dashoffset="0" font-family="none" font-weight="none" font-size="none" text-anchor="none" style="mix-blend-mode: normal" data-fill-palette-color="tertiary"></path></g><g transform="matrix(1,0,0,1,64,104.30739618828932)"><svg viewBox="0 0 192 151.38520762342137" height="151.38520762342137" width="192"><g><svg viewBox="0 0 192 151.38520762342137" height="151.38520762342137" width="192"><g><svg viewBox="0 0 192 151.38520762342137" height="151.38520762342137" width="192"><g transform="matrix(1,0,0,1,0,91.50001818599311)"><svg viewBox="0 0 192 59.88518943742824" height="59.88518943742824" width="192"><g><svg viewBox="0 0 192 59.88518943742824" height="59.88518943742824" width="192"><g><svg viewBox="0 0 192 59.88518943742824" height="59.88518943742824" width="192"><g transform="matrix(1,0,0,1,0,0)"><svg width="192" viewBox="2.25 -40.25 130.64 40.75" height="59.88518943742824" data-palette-color="#3d3839"><path d="M13-14.25L13-7.95Q13-6.05 13.2-4.85 13.4-3.65 14-3 14.6-2.35 15.65-2.13 16.7-1.9 18.45-1.9L18.45-1.9 18.45 0 2.25 0 2.25-1.9Q4-1.9 5.08-2.13 6.15-2.35 6.75-2.98 7.35-3.6 7.55-4.73 7.75-5.85 7.75-7.6L7.75-7.6 7.75-30.9Q7.75-32.8 7.53-33.93 7.3-35.05 6.73-35.65 6.15-36.25 5.2-36.43 4.25-36.6 2.75-36.6L2.75-36.6 2.75-38.5 17.95-38.5 17.95-36.6Q16.45-36.6 15.5-36.4 14.55-36.2 13.98-35.55 13.4-34.9 13.2-33.73 13-32.55 13-30.55L13-30.55 13-18.2 25.5-33.25Q26.5-34.5 26.5-35.2L26.5-35.2Q26.5-36.6 23.65-36.6L23.65-36.6 23.65-38.5 35.7-38.5 35.7-36.65Q34.7-36.65 33.95-36.52 33.2-36.4 32.48-36 31.75-35.6 30.95-34.85 30.15-34.1 29.1-32.9L29.1-32.9 19.7-22.05 34.3-4.5Q35.55-3.05 36.65-2.48 37.75-1.9 39.6-1.9L39.6-1.9 39.6 0 24.25 0 24.25-1.9Q26.2-1.9 27.05-2.23 27.9-2.55 27.9-3.25L27.9-3.25Q27.9-3.65 27.5-4.4 27.1-5.15 26.2-6.25L26.2-6.25 16.45-18.25 13-14.25ZM56.4-10.85L56.4-14.8Q53.55-13.7 51.57-12.65 49.6-11.6 48.4-10.55 47.2-9.5 46.67-8.45 46.15-7.4 46.15-6.3L46.15-6.3Q46.15-4.65 47.25-3.6 48.35-2.55 50.15-2.55L50.15-2.55Q51.45-2.55 52.57-3.2 53.7-3.85 54.55-4.98 55.4-6.1 55.9-7.63 56.4-9.15 56.4-10.85L56.4-10.85ZM49.2-13.8L56.4-16.95 56.4-19Q56.4-25.1 51.2-25.1L51.2-25.1Q50.35-25.1 49.75-24.95 49.15-24.8 48.75-24.45 48.35-24.1 48.02-23.45 47.7-22.8 47.4-21.85L47.4-21.85Q46.85-20.4 46.32-19.93 45.8-19.45 44.8-19.45L44.8-19.45Q42.3-19.45 42.3-21.95L42.3-21.95Q42.3-24.35 44.85-25.68 47.4-27 52.1-27L52.1-27Q57.1-27 59.2-25.23 61.3-23.45 61.3-19.2L61.3-19.2 61.3-8Q61.3-2.3 63.55-2.3L63.55-2.3Q64.25-2.3 64.9-2.48 65.55-2.65 66-3.4L66-3.4 66.7-2.2Q66.1-1.05 64.5-0.28 62.9 0.5 61.15 0.5L61.15 0.5Q58.95 0.5 57.87-0.9 56.8-2.3 56.8-4.85L56.8-4.85 56.55-4.85Q55.25-2.4 52.95-0.98 50.65 0.45 47.85 0.45L47.85 0.45Q44.7 0.45 42.9-1.15 41.1-2.75 41.1-5.45L41.1-5.45Q41.1-6.65 41.52-7.75 41.95-8.85 42.9-9.85 43.85-10.85 45.4-11.83 46.95-12.8 49.2-13.8L49.2-13.8ZM78.05-27L78.05-7.95Q78.05-6 78.22-4.83 78.4-3.65 78.9-2.98 79.4-2.3 80.3-2.05 81.2-1.8 82.7-1.75L82.7-1.75 82.7 0 68.35 0 68.35-1.75Q69.85-1.8 70.8-2.08 71.75-2.35 72.27-2.98 72.8-3.6 72.97-4.73 73.15-5.85 73.15-7.6L73.15-7.6 73.15-14Q73.15-16.9 73.07-18.78 73-20.65 72.8-21.35L72.8-21.35Q72.55-22.5 71.65-22.93 70.75-23.35 68.25-23.35L68.25-23.35 68.25-25.1 78.05-27ZM72.3-37.15L72.3-37.15Q72.3-38.45 73.2-39.35 74.1-40.25 75.4-40.25L75.4-40.25Q76.7-40.25 77.6-39.35 78.5-38.45 78.5-37.15L78.5-37.15Q78.5-35.85 77.6-34.95 76.7-34.05 75.4-34.05L75.4-34.05Q74.1-34.05 73.2-34.95 72.3-35.85 72.3-37.15ZM88.69-23.35L85.69-23.35 85.69-25.2Q88.34-26.75 89.84-28.3 91.34-29.85 92.14-32L92.14-32 93.59-32 93.59-25.7 100.29-25.7 100.29-23.35 93.59-23.35 93.59-8.15Q93.59-6.4 93.77-5.2 93.94-4 94.34-3.28 94.74-2.55 95.39-2.25 96.04-1.95 97.04-1.95L97.04-1.95Q98.29-1.95 99.17-2.48 100.04-3 100.89-4.25L100.89-4.25 102.14-3.3Q101.44-1.45 99.72-0.48 97.99 0.5 95.44 0.5L95.44 0.5Q92.14 0.5 90.42-1.07 88.69-2.65 88.69-5.6L88.69-5.6 88.69-23.35ZM118.84-27L118.84-27Q121.69-27 124.24-25.98 126.79-24.95 128.72-23.15 130.64-21.35 131.77-18.88 132.89-16.4 132.89-13.45L132.89-13.45Q132.89-10.4 131.77-7.85 130.64-5.3 128.72-3.45 126.79-1.6 124.24-0.55 121.69 0.5 118.84 0.5L118.84 0.5Q116.04 0.5 113.52-0.53 110.99-1.55 109.09-3.4 107.19-5.25 106.09-7.83 104.99-10.4 104.99-13.45L104.99-13.45Q104.99-16.4 106.09-18.9 107.19-21.4 109.09-23.2 110.99-25 113.52-26 116.04-27 118.84-27ZM118.84-24.6L118.84-24.6Q116.99-24.6 115.47-23.8 113.94-23 112.87-21.53 111.79-20.05 111.22-17.98 110.64-15.9 110.64-13.4L110.64-13.4Q110.64-10.8 111.22-8.7 111.79-6.6 112.87-5.13 113.94-3.65 115.44-2.85 116.94-2.05 118.84-2.05L118.84-2.05Q120.74-2.05 122.29-2.85 123.84-3.65 124.94-5.15 126.04-6.65 126.64-8.75 127.24-10.85 127.24-13.4L127.24-13.4Q127.24-15.9 126.64-17.95 126.04-20 124.94-21.48 123.84-22.95 122.29-23.78 120.74-24.6 118.84-24.6Z" opacity="1" transform="matrix(1,0,0,1,0,0)" fill="#3d3839" class="undefined-text-0" data-fill-palette-color="primary" id="text-0"></path></svg></g></svg></g></svg></g></svg></g><g transform="matrix(1,0,0,1,40.28413961012419,0)"><svg viewBox="0 0 111.43172077975161 82.76133180252583" height="82.76133180252583" width="111.43172077975161"><g><svg xmlns="http://www.w3.org/2000/svg" xmlns:xlink="http://www.w3.org/1999/xlink" version="1.1" x="0" y="0" viewBox="7.5 18.435 85.001 63.131" enable-background="new 0 0 100 100" xml:space="preserve" height="82.76133180252583" width="111.43172077975161" class="icon-icon-0" data-fill-palette-color="accent" id="icon-0"><g fill="#001f3f" data-fill-palette-color="accent"><path d="M89.405 18.435H10.595c-1.706 0-3.095 1.389-3.095 3.095v56.941c0 1.706 1.389 3.095 3.095 3.095h78.811c1.707 0 3.095-1.389 3.095-3.095V77.14 32.027 21.529C92.5 19.823 91.112 18.435 89.405 18.435zM10.595 19.673h78.811c1.023 0 1.857 0.833 1.857 1.856v9.075c-0.068-0.01-0.136-0.021-0.207-0.021H8.951c-0.073 0-0.143 0.011-0.213 0.021v-9.076C8.738 20.506 9.571 19.673 10.595 19.673zM91.263 77.14c0 0.114-0.093 0.206-0.207 0.206H8.951c-0.113 0-0.206-0.092-0.206-0.206V32.027c0-0.113 0.093-0.206 0.206-0.206h82.104c0.114 0 0.207 0.093 0.207 0.206V77.14zM89.405 80.327H10.595c-0.992 0-1.798-0.784-1.848-1.764 0.067 0.01 0.135 0.021 0.204 0.021h82.104c0.068 0 0.133-0.011 0.197-0.02C91.202 79.544 90.396 80.327 89.405 80.327z" fill="#001f3f" data-fill-palette-color="accent"></path><path d="M28.178 27.787c1.45 0 2.63-1.18 2.63-2.63 0-1.451-1.18-2.631-2.63-2.631s-2.631 1.18-2.631 2.631C25.547 26.607 26.728 27.787 28.178 27.787zM28.178 23.765c0.768 0 1.393 0.624 1.393 1.393 0 0.768-0.625 1.393-1.393 1.393-0.769 0-1.393-0.625-1.393-1.393C26.785 24.389 27.409 23.765 28.178 23.765z" fill="#001f3f" data-fill-palette-color="accent"></path><path d="M21.458 27.787c1.451 0 2.631-1.18 2.631-2.63 0-1.451-1.18-2.631-2.631-2.631-1.45 0-2.63 1.18-2.63 2.631C18.828 26.607 20.008 27.787 21.458 27.787zM21.458 23.765c0.769 0 1.393 0.624 1.393 1.393 0 0.768-0.624 1.393-1.393 1.393-0.768 0-1.393-0.625-1.393-1.393C20.065 24.389 20.69 23.765 21.458 23.765z" fill="#001f3f" data-fill-palette-color="accent"></path><path d="M14.738 27.787c1.451 0 2.631-1.18 2.631-2.63 0-1.451-1.18-2.631-2.631-2.631-1.45 0-2.63 1.18-2.63 2.631C12.108 26.607 13.288 27.787 14.738 27.787zM14.738 23.765c0.769 0 1.393 0.624 1.393 1.393 0 0.768-0.624 1.393-1.393 1.393-0.768 0-1.393-0.625-1.393-1.393C13.346 24.389 13.971 23.765 14.738 23.765z" fill="#001f3f" data-fill-palette-color="accent"></path></g><path d="M26.598 65.915c-0.624 0-1.395-0.429-2.289-1.276-1.605-1.519-2.16-2.371-1.2-3.405l8.79-8.811-8.774-8.782c-0.676-0.676-0.57-1.195-0.401-1.57 0.242-0.544 0.814-1.117 1.479-1.781 0.829-0.829 1.542-1.542 2.241-1.542 0.342 0 0.679 0.172 1.033 0.526l11.769 11.755c0.311 0.254 0.521 0.659 0.564 1.134 0.048 0.537-0.134 1.152-0.452 1.533L27.53 65.514C27.243 65.787 26.941 65.915 26.598 65.915zM23.846 42.57c-0.009 0 0.027 0.068 0.154 0.194l9.211 9.221c0.241 0.242 0.241 0.633 0 0.875L24 62.093c-0.093 0.1-0.125 0.147-0.133 0.166 0.012 0.047 0.125 0.377 1.292 1.48 0.979 0.927 1.42 0.938 1.438 0.938v0.619l0.01-0.62c-0.001 0.001-0.001 0.001-0.001 0.001-0.003 0 0.02-0.012 0.061-0.05l11.777-11.767c0.061-0.077 0.151-0.357 0.131-0.589-0.013-0.145-0.063-0.246-0.162-0.328L26.601 40.148c-0.144-0.143-0.215-0.171-0.215-0.171-0.182 0.06-0.886 0.764-1.307 1.184-0.531 0.532-1.077 1.078-1.227 1.413C23.85 42.571 23.848 42.57 23.846 42.57z" fill="#001f3f" data-fill-palette-color="accent"></path><path d="M55.834 71.436H40.498c-1.594 0-1.92-1.234-1.92-3.088s0.326-3.088 1.92-3.088h15.336c1.503 0 1.787 1.085 1.787 3.088C57.621 70.396 57.346 71.436 55.834 71.436zM40.498 66.497c-0.366 0-0.683 0-0.683 1.851s0.316 1.851 0.683 1.851h15.336c0.354 0 0.55 0 0.55-1.851s-0.219-1.851-0.55-1.851H40.498z" fill="#001f3f" data-fill-palette-color="accent"></path></svg></g></svg></g><g></g></svg></g></svg></g></svg></g></svg></g><defs></defs></svg><rect width="320" height="360" fill="none" stroke="none" visibility="hidden"></rect></g></svg></g></svg>