<svg xmlns="http://www.w3.org/2000/svg" version="1.1" xmlns:xlink="http://www.w3.org/1999/xlink" xmlns:svgjs="http://svgjs.dev/svgjs" width="1000" height="623" viewBox="0 0 1000 623"><g transform="matrix(1,0,0,1,-0.6060606060606233,0.2522267206477409)"><svg viewBox="0 0 396 247" data-background-color="#ffffff" preserveAspectRatio="xMidYMid meet" height="623" width="1000" xmlns="http://www.w3.org/2000/svg" xmlns:xlink="http://www.w3.org/1999/xlink"><g id="tight-bounds" transform="matrix(1,0,0,1,0.2400000000000091,-0.09999999999999432)"><svg viewBox="0 0 395.52 247.2" height="247.2" width="395.52"><g><svg></svg></g><g><svg viewBox="0 0 395.52 247.2" height="247.2" width="395.52"><g><path xmlns="http://www.w3.org/2000/svg" d="M55.039 247.2l26.403-45.732 7.584 0-22.403 38.804h262.274l-22.403-38.804 7.584 0 26.403 45.732zM197.76 0l26.403 45.732-7.583 0-18.82-32.596-18.82 32.596-7.583 0z" fill="#636365" fill-rule="nonzero" stroke="none" stroke-width="1" stroke-linecap="butt" stroke-linejoin="miter" stroke-miterlimit="10" stroke-dasharray="" stroke-dashoffset="0" font-family="none" font-weight="none" font-size="none" text-anchor="none" style="mix-blend-mode: normal" data-fill-palette-color="tertiary"></path></g><g transform="matrix(1,0,0,1,47.146676602086444,67.97999999999999)"><svg viewBox="0 0 301.2266467958271 111.24" height="111.24" width="301.2266467958271"><g><svg viewBox="0 0 301.2266467958271 111.24" height="111.24" width="301.2266467958271"><g><svg viewBox="0 0 301.2266467958271 111.24" height="111.24" width="301.2266467958271"><g><svg viewBox="0 0 301.2266467958271 111.24" height="111.24" width="301.2266467958271"><g><svg viewBox="0 0 301.2266467958271 111.24" height="111.24" width="301.2266467958271"><g><svg viewBox="0 0 301.2266467958271 111.24" height="111.24" width="301.2266467958271"><g transform="matrix(1,0,0,1,0,0)"><svg width="301.2266467958271" viewBox="1.1200000047683716 -32.099998474121094 88.70999908447266 32.7599983215332" height="111.24" data-palette-color="#636365"><path d="M1.12 0L11.08 0 11.23-0.81 7.35-1.44 7.35-31.88 7.18-32.1 1.37-31.62 1.37-30.93 5-30.22 5-1.44 1.34-0.76 1.12 0ZM12.21-5.57Q14.48-2.83 15.66-1.62 16.85-0.42 17.77 0.04 18.7 0.49 19.97 0.49L19.97 0.49Q20.7 0.49 21.4 0.33 22.09 0.17 22.51 0L22.51 0 22.68-1.03 21.73-1.12Q20.41-1.27 19.48-1.77 18.55-2.27 17.66-3.16 16.77-4.05 15.01-6.1L15.01-6.1 13.45-7.89 10.52-11.21 17.68-19.19 21.34-19.97 21.51-20.8 12.7-20.8 12.57-19.97 15.84-19.17 8.23-10.79 8.23-10.38 12.21-5.57ZM29.78 0.63Q31.47 0.63 32.97 0 34.47-0.63 35.46-1.54 36.45-2.44 36.67-3.13L36.67-3.13 36.79-3.13 36.79-2.81Q36.79-1.44 37.6-0.5 38.4 0.44 39.87 0.44L39.87 0.44Q40.57 0.44 41.23 0.28 41.89 0.12 42.33-0.07L42.33-0.07 42.45-0.9 40.84-1.22Q39.84-1.39 39.38-1.98 38.91-2.56 38.8-3.37 38.69-4.17 38.69-5.59L38.69-5.59 38.69-13.89Q38.69-17.65 37.22-19.45 35.74-21.24 32.69-21.24L32.69-21.24Q30.83-21.24 29.2-20.53 27.56-19.82 26.57-18.66 25.58-17.5 25.58-16.26L25.58-16.26Q25.58-15.36 26.19-14.87 26.8-14.38 27.71-14.38L27.71-14.38Q27.81-17.04 28.66-18.52 29.51-20 31.54-20L31.54-20Q34.2-20 35.34-18.21 36.47-16.43 36.47-12.6L36.47-12.6 36.47-11.16Q32.76-11.01 30.06-10.07 27.37-9.13 25.94-7.57 24.51-6.01 24.51-3.96L24.51-3.96Q24.51-2.54 25.21-1.5 25.9-0.46 27.1 0.09 28.29 0.63 29.78 0.63L29.78 0.63ZM36.47-10.06L36.47-4.52Q36.08-3.61 35.28-2.82 34.47-2.03 33.31-1.53 32.15-1.03 30.81-1.03L30.81-1.03Q29.1-1.03 28.12-1.99 27.15-2.95 27.15-4.61L27.15-4.61Q27.15-6.32 28.48-7.54 29.81-8.76 31.94-9.4 34.08-10.03 36.47-10.06L36.47-10.06ZM48.46-26.64Q49.29-26.64 49.64-27.26 50-27.88 50-29.13L50-29.13Q50-31.49 48.43-31.49L48.43-31.49Q46.92-31.49 46.92-29.13L46.92-29.13Q46.92-27.91 47.29-27.27 47.65-26.64 48.46-26.64L48.46-26.64ZM43.4 0L53.32 0 53.58-0.81 49.75-1.44 49.75-20.61 49.56-20.83 43.72-20.34 43.65-19.68 47.33-18.99 47.33-1.44 43.72-0.76 43.4 0ZM58.93-18.51L58.85-5.93Q58.85-2.69 59.82-1.05 60.78 0.59 62.98 0.59L62.98 0.59Q64.54 0.59 66.12-0.34 67.69-1.27 68.79-2.81L68.79-2.81 68.4-3.61Q68.4-3.59 67.69-3.09 66.98-2.59 66.08-2.19 65.18-1.78 64.37-1.78L64.37-1.78Q63.27-1.78 62.61-2.25 61.96-2.71 61.63-3.92 61.3-5.13 61.3-7.35L61.3-7.35 61.35-18.46 68.01-18.46 68.18-19.78 61.39-19.78 61.39-25.59 60.25-25.59Q59.81-23.1 59.32-21.92 58.83-20.75 58.12-20.26 57.41-19.78 55.85-19.21L55.85-19.21 55.85-18.51 58.93-18.51ZM80.48 0.66Q83 0.66 85.13-0.76 87.27-2.17 88.55-4.76 89.83-7.35 89.83-10.67L89.83-10.67Q89.83-13.55 88.75-16.03 87.66-18.51 85.68-19.98 83.71-21.46 81.12-21.46L81.12-21.46Q78.36-21.46 76.14-20.03 73.92-18.6 72.62-15.93 71.33-13.26 71.33-9.67L71.33-9.67Q71.33-6.54 72.52-4.2 73.72-1.86 75.81-0.6 77.9 0.66 80.48 0.66L80.48 0.66ZM80.04-19.85Q82.19-19.85 83.84-18.42 85.49-16.99 86.38-14.67 87.27-12.35 87.27-9.79L87.27-9.79Q87.27-7.25 86.54-5.24 85.81-3.22 84.46-2.06 83.12-0.9 81.36-0.9L81.36-0.9Q79.14-0.9 77.43-2.31 75.72-3.71 74.81-6.12 73.89-8.52 73.89-11.43L73.89-11.43Q73.89-13.79 74.66-15.71 75.43-17.63 76.83-18.74 78.24-19.85 80.04-19.85L80.04-19.85Z" opacity="1" transform="matrix(1,0,0,1,0,0)" fill="#636365" class="undefined-text-0" data-fill-palette-color="primary" id="text-0"></path></svg></g></svg></g></svg></g></svg></g></svg></g></svg></g></svg></g></svg></g><defs></defs></svg><rect width="395.52" height="247.2" fill="none" stroke="none" visibility="hidden"></rect></g></svg></g></svg>